<?xml version="1.0" standalone="no"?>
<!DOCTYPE svg PUBLIC "-//W3C//DTD SVG 20010904//EN"
 "http://www.w3.org/TR/2001/REC-SVG-20010904/DTD/svg10.dtd">
<svg version="1.0" xmlns="http://www.w3.org/2000/svg"
 width="555.000000pt" height="449.000000pt" viewBox="0 0 555.000000 449.000000"
 preserveAspectRatio="xMidYMid meet">

<g transform="translate(0.000000,449.000000) scale(0.100000,-0.100000)"
fill="#000000" stroke="none">
<path d="M2751 4433 c1 -97 -36 -199 -76 -205 -27 -4 -45 -44 -45 -104 l0 -51
-47 -7 c-87 -13 -88 -12 -91 12 -4 29 -27 28 -47 -1 -12 -19 -14 -49 -12 -148
2 -68 7 -131 11 -140 5 -12 -5 -30 -33 -60 -23 -23 -41 -47 -41 -53 -1 -6 -9
-29 -20 -51 -11 -22 -19 -50 -20 -63 0 -13 -4 -20 -10 -17 -5 3 -10 26 -10 49
0 45 15 92 51 159 12 21 27 73 33 115 10 66 10 83 -3 117 -27 70 -77 98 -130
71 -26 -14 -30 -20 -25 -44 3 -16 -1 -45 -10 -66 -19 -46 -20 -79 -4 -105 9
-15 9 -31 0 -71 -16 -67 -16 -212 0 -228 6 -6 9 -15 5 -18 -3 -4 -13 1 -22 10
-16 16 -65 23 -65 9 0 -4 15 -23 34 -43 19 -20 44 -63 57 -99 22 -61 22 -65 5
-75 -68 -42 -166 -208 -181 -308 -8 -54 -18 -58 -148 -58 -81 0 -157 19 -185
47 -7 7 -18 13 -23 13 -17 0 19 -57 65 -101 47 -46 132 -78 209 -79 42 0 46
-13 23 -77 -24 -69 -35 -108 -42 -148 -10 -63 -19 -73 -39 -41 -10 15 -49 58
-86 97 -38 38 -69 74 -69 79 0 5 -11 21 -25 36 -30 33 -107 165 -126 217 -22
62 -39 47 -39 -35 1 -81 23 -132 93 -212 20 -22 46 -52 57 -66 34 -40 87 -132
100 -175 7 -22 16 -50 21 -63 17 -45 10 -115 -17 -167 -29 -57 -58 -75 -121
-75 -35 0 -46 5 -60 27 -22 34 -22 107 1 151 21 41 21 42 -14 42 -26 0 -29 3
-21 18 12 22 0 83 -29 146 -20 43 -21 59 -16 127 7 74 6 80 -21 121 -15 24
-31 45 -34 48 -3 3 -18 23 -32 45 -37 56 -53 75 -63 75 -5 0 -17 -28 -27 -62
-9 -35 -22 -77 -27 -94 -6 -17 -10 -53 -10 -81 0 -43 4 -53 29 -72 41 -32 55
-71 46 -129 -11 -66 -7 -131 9 -164 8 -16 10 -28 5 -28 -13 0 -39 -25 -39 -37
0 -4 14 -23 30 -42 49 -55 65 -142 31 -161 -47 -25 -151 0 -193 47 -56 62 -61
219 -12 353 24 65 28 90 28 191 1 109 -1 118 -29 175 -17 32 -38 60 -47 62
-16 3 -16 -1 -1 -53 17 -59 13 -90 -32 -245 -9 -30 -20 -75 -25 -100 -5 -25
-19 -90 -31 -145 -19 -88 -20 -107 -9 -160 7 -33 14 -71 17 -85 6 -32 51 -110
77 -133 55 -47 106 -59 209 -48 72 8 87 5 87 -14 0 -7 17 -28 37 -46 43 -37
63 -71 63 -105 0 -12 9 -38 20 -57 12 -19 27 -70 34 -113 8 -44 17 -90 21
-102 8 -24 8 -24 -23 -8 -17 9 -36 16 -42 16 -7 0 -26 6 -43 14 -144 62 -265
46 -409 -57 -90 -64 -100 -104 -42 -162 35 -36 36 -36 31 -108 -3 -40 -12
-108 -22 -152 -26 -122 -31 -379 -10 -463 17 -68 20 -77 50 -147 60 -142 167
-273 256 -313 156 -71 318 -28 467 125 51 53 63 61 68 46 3 -10 10 -26 15 -35
5 -10 9 -25 9 -33 0 -21 12 -19 44 6 21 16 26 27 21 43 -32 105 -36 142 -24
206 7 36 18 77 24 92 11 27 11 26 50 -47 21 -41 42 -75 47 -75 4 0 8 -6 8 -12
1 -17 44 -71 107 -132 69 -67 80 -76 93 -76 5 0 10 -4 10 -8 0 -4 12 -13 28
-19 15 -6 38 -18 52 -27 14 -8 41 -21 60 -29 19 -8 60 -25 90 -37 82 -34 106
-39 210 -50 128 -13 343 4 495 40 77 17 151 66 243 158 131 132 158 175 192
307 20 81 46 345 36 372 -6 15 -5 16 6 5 9 -9 13 -51 13 -150 1 -155 10 -183
72 -209 42 -17 49 -13 57 35 4 28 19 52 55 89 30 31 54 67 62 92 l12 40 23
-49 c22 -48 25 -50 64 -50 22 0 40 5 40 10 0 6 -4 10 -10 10 -17 0 -11 64 10
108 21 42 36 50 68 33 30 -17 150 -71 156 -71 3 0 6 7 6 15 0 8 -6 15 -13 15
-8 0 -27 6 -43 14 -16 7 -52 24 -81 36 l-51 23 21 46 c24 53 30 202 9 223 -9
9 -12 2 -13 -33 -1 -24 -1 -47 0 -51 0 -4 -6 -5 -14 -2 -10 4 -15 21 -15 53 0
31 -9 61 -25 90 -21 36 -22 42 -8 35 10 -4 42 -9 72 -10 61 -2 141 -22 141
-35 0 -15 38 -10 44 6 13 35 -45 105 -87 105 -9 0 -22 6 -30 14 -34 35 -116
76 -150 76 -31 0 -37 4 -47 33 -9 24 -25 38 -64 57 -50 25 -51 26 -54 75 -4
90 -22 172 -49 232 -27 58 -27 59 -25 260 2 189 1 204 -19 240 -12 21 -27 45
-35 54 -10 11 -14 42 -14 100 0 67 -6 101 -30 169 -21 61 -30 104 -30 152 0
37 -4 77 -9 90 -21 53 -24 65 -26 113 -1 33 -10 66 -28 98 -17 29 -27 63 -27
87 0 54 -17 87 -59 112 -44 27 -53 38 -86 105 -14 28 -32 54 -40 57 -8 3 -15
14 -15 25 0 35 -12 51 -36 51 -13 0 -24 4 -24 9 0 5 -11 19 -25 32 -13 13 -25
33 -25 44 0 11 -11 38 -25 60 -13 22 -25 56 -25 76 0 22 -13 57 -35 93 -19 32
-35 64 -35 71 0 14 -32 45 -46 45 -6 0 -25 16 -44 35 -22 23 -43 35 -61 35
-20 0 -27 5 -25 17 2 10 11 18 21 18 10 0 20 5 22 11 6 17 -48 14 -54 -2 -8
-22 -23 -16 -23 9 0 12 -9 29 -20 37 -11 8 -20 18 -20 23 0 14 -33 81 -47 95
-7 8 -18 22 -23 33 -6 10 -15 19 -20 19 -5 0 -20 11 -34 25 -14 14 -34 25 -45
25 -11 0 -25 9 -31 20 -7 13 -21 20 -40 20 -28 0 -30 -3 -29 -37z m94 -45 c22
-23 34 -38 26 -33 -11 6 -13 4 -8 -8 3 -10 2 -17 -3 -17 -6 0 -10 6 -11 13 0
9 -2 9 -6 -1 -2 -6 -10 -9 -16 -5 -6 4 -8 0 -4 -10 3 -9 2 -19 -3 -22 -4 -3
-10 1 -13 7 -2 7 -8 1 -12 -14 -7 -27 -19 -36 -28 -20 -3 4 -1 16 4 27 5 13 8
15 9 5 0 -12 3 -11 11 3 5 9 7 22 4 27 -3 6 5 10 19 10 16 0 26 6 26 15 0 8
-4 15 -10 15 -5 0 -10 8 -10 18 -1 10 -6 5 -14 -13 -7 -17 -21 -36 -30 -44
-16 -13 -17 -12 -10 15 10 41 15 48 26 33 8 -11 9 -10 5 3 -3 9 -1 19 6 22 7
3 2 3 -10 0 -13 -3 -23 -1 -23 5 0 24 37 9 75 -31z m129 -93 c9 -14 14 -30 11
-35 -3 -5 8 -21 25 -36 34 -30 39 -53 13 -55 -17 -1 -17 -2 0 -6 24 -6 21 -19
-5 -27 l-23 -6 24 -14 c17 -9 20 -15 10 -18 -11 -4 -11 -8 3 -22 22 -22 12
-46 -19 -46 -39 0 -104 22 -110 37 -3 7 -11 13 -18 13 -8 0 -17 5 -21 11 -5 9
1 10 20 5 19 -5 26 -3 26 9 0 8 -5 15 -11 15 -5 0 -8 4 -4 9 3 5 1 12 -5 16
-28 18 2 65 58 92 l27 13 -27 -5 c-32 -6 -36 7 -16 50 14 31 21 31 42 0z
m-170 -59 c-6 -25 -24 -37 -24 -16 0 13 23 50 28 46 1 -2 0 -15 -4 -30z m-50
-4 c-6 -4 -14 -17 -18 -29 -4 -13 -15 -23 -26 -23 -21 0 -50 -50 -50 -87 0
-12 -4 -23 -9 -23 -5 0 -8 8 -6 18 2 9 7 38 10 65 6 44 8 47 35 47 23 0 30 6
39 32 9 25 14 29 24 19 8 -8 9 -14 1 -19z m33 -74 c-3 -8 -6 -5 -6 6 -1 11 2
17 5 13 3 -3 4 -12 1 -19z m270 -34 c-3 -3 -12 -4 -19 -1 -8 3 -5 6 6 6 11 1
17 -2 13 -5z m-199 -60 c13 -9 26 -14 28 -11 3 3 16 -5 30 -18 18 -17 24 -33
24 -63 0 -22 5 -44 10 -47 6 -3 10 -10 10 -16 0 -17 -25 -9 -57 20 -27 23 -33
36 -33 67 0 29 -6 44 -27 61 -30 26 -19 31 15 7z m-223 -35 c12 -2 -78 -19
-120 -22 -19 -1 -31 3 -32 13 -3 12 9 15 69 13 40 -1 78 -2 83 -4z m595 -29
c26 -24 33 -40 36 -78 l4 -47 -16 45 c-16 43 -55 90 -75 90 -5 0 -9 5 -9 10 0
19 28 10 60 -20z m-876 -6 c21 -22 26 -36 26 -75 0 -49 -4 -62 -46 -156 -28
-63 -41 -71 -16 -10 52 123 52 178 1 229 -34 35 -35 38 -10 38 10 0 30 -12 45
-26z m316 -4 c12 -8 11 -10 -7 -10 -32 0 -103 -73 -103 -105 0 -33 39 -49 100
-40 97 14 146 23 178 33 75 24 -10 -27 -93 -56 -16 -6 -43 -13 -59 -17 -21 -4
-26 -9 -17 -14 15 -9 12 -12 -44 -41 -86 -46 -145 -94 -145 -120 0 -9 -5 -21
-11 -27 -9 -9 -8 -20 4 -45 17 -37 87 -109 87 -90 0 7 -4 12 -8 12 -5 0 -16
17 -25 38 -19 42 -23 112 -7 112 6 0 10 5 10 10 0 30 116 101 187 115 21 4 43
10 48 15 6 4 28 11 50 14 37 7 39 6 20 -8 -11 -8 -26 -16 -33 -16 -8 0 -43
-13 -79 -30 -35 -16 -67 -30 -70 -30 -17 0 -73 -54 -73 -70 0 -10 -5 -22 -10
-25 -13 -8 -3 -93 13 -113 5 -7 7 -15 4 -19 -11 -11 13 -43 33 -43 24 0 24 0
5 69 -14 48 -14 61 -2 95 19 56 36 57 30 2 -4 -29 0 -55 11 -77 9 -17 16 -40
16 -51 0 -10 11 -24 25 -30 14 -6 25 -15 25 -20 0 -4 3 -8 8 -8 22 1 34 24 43
84 12 73 45 147 69 154 9 3 5 -6 -10 -22 -21 -24 -24 -36 -24 -100 0 -100 6
-106 100 -99 84 7 105 -10 27 -21 -90 -12 -107 -17 -92 -27 8 -5 24 -9 37 -9
12 0 22 -4 22 -10 0 -16 30 -12 36 5 4 10 19 15 43 15 20 0 51 4 69 9 25 8 32
7 32 -5 0 -8 7 -14 15 -14 8 0 15 6 15 14 0 8 23 21 58 32 31 10 68 24 82 31
14 7 30 13 37 13 6 0 39 16 73 35 35 20 65 34 67 31 7 -6 -89 -59 -157 -87
-36 -14 -64 -30 -63 -36 1 -6 -5 -10 -15 -9 -10 0 -16 -6 -16 -16 1 -10 -3
-18 -10 -19 -6 0 -19 -2 -28 -4 -72 -14 -99 -14 -104 0 -4 8 -10 15 -15 15
-14 0 -11 -28 4 -33 6 -3 -23 -6 -65 -6 -46 -1 -78 3 -78 9 0 13 -27 13 -32 0
-5 -15 -89 -23 -161 -16 -52 6 -66 11 -70 27 -5 19 -47 28 -47 9 0 -13 -37
-13 -45 -1 -3 5 -19 12 -35 16 -48 11 -87 34 -93 55 -4 14 -14 20 -35 20 -22
0 -31 6 -35 22 -9 35 2 40 36 18 18 -11 49 -28 69 -36 21 -9 36 -20 33 -24 -3
-4 2 -14 11 -21 12 -10 17 -10 23 -1 5 9 22 7 66 -8 32 -11 68 -20 80 -20 13
0 25 -7 29 -15 6 -17 46 -21 46 -5 0 6 17 11 38 11 24 1 28 3 12 5 -120 18
-219 40 -240 54 -14 10 -36 21 -50 25 -14 4 -37 16 -52 26 -14 11 -30 19 -35
19 -26 0 -47 45 -44 93 2 26 21 20 21 -7 0 -13 6 -29 14 -35 11 -10 13 -4 9
32 -10 87 43 150 152 182 95 27 106 33 65 36 -19 1 -47 1 -61 0 -20 -1 -33 6
-48 28 -27 38 -27 48 9 104 39 62 109 93 150 67z m64 -32 c-3 -13 -11 -24 -15
-26 -5 -2 -9 -22 -9 -44 0 -50 -24 -47 -28 3 -2 24 4 44 18 62 26 33 44 35 34
5z m-435 -27 c10 -6 12 -20 7 -47 -6 -38 -6 -38 8 -14 13 22 15 23 16 5 0 -10
-7 -39 -16 -62 -12 -32 -22 -43 -38 -43 -19 -1 -19 -2 -4 -10 14 -9 15 -16 6
-43 -6 -17 -18 -38 -26 -44 -10 -8 -11 -13 -4 -13 8 0 12 -17 12 -45 0 -33 -4
-45 -15 -45 -12 0 -15 14 -14 68 0 37 5 90 10 117 6 28 11 75 12 105 3 73 14
91 46 71z m761 -91 c0 -40 -4 -47 -34 -67 -19 -12 -46 -25 -60 -29 -14 -3 -26
-11 -26 -17 0 -6 -3 -8 -6 -4 -12 12 -91 -38 -141 -90 -28 -30 -58 -73 -67
-96 l-14 -42 -1 38 c-1 43 26 102 61 133 30 28 89 57 168 84 81 27 112 58 103
103 -3 17 -9 34 -13 37 -4 3 -10 16 -14 30 -7 24 -6 24 18 -5 20 -23 26 -41
26 -75z m-823 38 c-3 -8 -6 -5 -6 6 -1 11 2 17 5 13 3 -3 4 -12 1 -19z m1053
-57 c5 -11 10 -30 9 -43 -1 -21 -2 -20 -9 5 -5 16 -14 35 -21 43 -8 9 -8 14
-1 14 6 0 16 -9 22 -19z m-298 -13 c-6 -6 -15 -8 -19 -4 -4 4 -1 11 7 16 19
12 27 3 12 -12z m-57 -17 c-39 -16 -75 -21 -75 -12 0 10 28 18 70 19 22 1 23
0 5 -7z m352 -63 c-3 -8 -6 -5 -6 6 -1 11 2 17 5 13 3 -3 4 -12 1 -19z m-271
-114 c8 -42 -3 -133 -18 -151 -20 -25 -27 -12 -12 24 10 23 14 58 12 100 -3
68 7 85 18 27z m58 -59 c7 -36 1 -75 -12 -75 -4 0 -7 27 -8 59 0 65 10 72 20
16z m-799 -16 c9 -29 -4 -38 -21 -15 -18 25 -18 36 0 36 8 0 18 -9 21 -21z
m-5 -87 c53 -54 58 -64 74 -135 16 -72 16 -81 0 -149 -30 -132 -103 -224 -212
-271 -53 -23 -78 -27 -152 -27 -101 0 -154 18 -209 69 l-34 32 29 -7 c16 -4
37 -11 46 -15 40 -21 237 2 303 35 56 28 111 84 139 141 23 48 28 72 29 144 2
90 -9 132 -48 186 -54 75 -41 74 35 -3z m1272 -12 c3 -41 6 -45 49 -67 59 -29
77 -56 80 -124 2 -30 13 -81 26 -114 29 -74 24 -97 -6 -30 -18 40 -37 131 -41
198 0 16 -54 57 -74 57 -28 0 -56 33 -56 65 0 30 -9 31 -37 6 -11 -10 -35 -27
-53 -37 -48 -27 -62 -36 -97 -61 -17 -13 -39 -23 -48 -23 -9 0 -25 -5 -36 -11
-11 -5 -28 -8 -37 -6 -15 3 -14 5 3 12 62 24 186 89 211 110 16 14 32 25 36
25 3 0 15 16 27 36 18 31 23 33 35 21 8 -8 16 -34 18 -57z m-1237 50 c3 -5 2
-10 -4 -10 -5 0 -13 5 -16 10 -3 6 -2 10 4 10 5 0 13 -4 16 -10z m59 -105 c-4
-8 -10 -12 -15 -9 -14 8 -10 24 6 24 9 0 12 -6 9 -15z m122 -41 c42 -18 167
-44 215 -44 6 0 7 -9 4 -20 -7 -24 7 -26 29 -5 19 20 201 22 210 3 3 -9 9 -8
20 5 17 21 96 36 96 18 0 -16 41 -14 54 3 13 16 96 29 96 15 0 -5 -9 -9 -20
-9 -11 0 -20 -6 -20 -14 0 -15 -19 -21 -106 -31 -43 -5 -52 -4 -58 11 -6 16
-7 16 -19 0 -14 -19 -96 -25 -159 -12 -32 7 -38 6 -38 -9 0 -11 -6 -15 -17
-11 -10 2 -53 7 -95 11 -57 5 -75 10 -72 20 4 9 -8 13 -45 12 -53 -1 -75 8
-52 22 10 7 10 10 1 16 -6 4 -17 2 -23 -4 -18 -18 -48 -13 -54 9 -4 15 -11 18
-29 14 -17 -5 -24 -2 -24 9 0 31 21 29 106 -9z m-236 -79 c0 -2 -11 -14 -24
-27 -13 -13 -49 -63 -80 -112 -31 -50 -56 -84 -56 -77 0 15 64 147 83 171 22
29 77 61 77 45z m707 -147 c-24 -100 -34 -155 -29 -167 3 -9 1 -12 -6 -7 -19
11 -14 79 9 140 22 57 36 75 26 34z m-239 -24 c33 -16 62 -48 79 -86 19 -43
-3 -42 -34 1 -20 28 -37 41 -60 44 -18 3 -48 13 -68 23 -35 16 -95 16 -167 -2
-24 -5 -28 -3 -28 14 0 18 7 22 53 25 79 6 194 -3 225 -19z m325 -41 c-4 -10
-13 -29 -21 -43 -13 -24 -13 -24 -6 10 3 19 12 38 18 42 16 11 16 10 9 -9z
m-348 -14 c26 -12 45 -28 45 -37 0 -12 -3 -13 -12 -4 -8 8 -46 12 -106 12
l-93 0 -62 -44 c-54 -39 -117 -104 -117 -121 0 -3 25 15 55 40 58 46 114 80
121 72 3 -3 -17 -33 -43 -68 -27 -36 -55 -80 -62 -99 -33 -88 -67 -134 -136
-185 -47 -35 -75 -69 -102 -123 -14 -29 -35 -58 -46 -64 -20 -11 -21 -10 -6
13 9 13 24 47 34 75 17 50 38 75 133 164 23 22 42 44 42 49 0 9 -60 -6 -120
-31 -20 -8 -50 -29 -67 -47 -34 -34 -43 -38 -43 -19 0 7 45 56 100 109 55 54
100 103 100 109 0 16 75 99 134 148 25 21 41 29 116 60 40 17 87 14 135 -9z
m1030 -38 c18 -36 30 -124 19 -144 -6 -10 -9 2 -9 36 -1 45 -8 68 -43 141 -11
23 20 -9 33 -33z m-2114 -99 c7 -24 21 -52 31 -64 10 -12 18 -24 18 -27 0 -3
16 -22 35 -41 54 -54 129 -151 147 -190 29 -61 50 -143 55 -213 5 -64 -1 -101
-30 -181 -12 -33 -81 -86 -112 -86 -12 0 -36 -5 -53 -11 -27 -9 -31 -15 -26
-36 4 -13 2 -34 -4 -46 -6 -12 -12 -29 -15 -38 -7 -21 -73 -32 -101 -17 -29
15 -36 28 -36 65 l0 32 -40 -14 c-66 -23 -136 -29 -185 -15 -25 7 -45 17 -45
21 0 5 -6 9 -14 9 -19 0 -61 57 -76 105 -7 22 -16 50 -21 63 -24 63 5 259 72
477 5 17 12 53 16 80 7 49 7 49 14 17 7 -35 -22 -213 -47 -289 -10 -29 -17
-86 -18 -152 -1 -99 1 -109 27 -153 32 -54 63 -79 131 -102 61 -20 86 -20 121
-2 38 20 45 33 45 87 0 45 -38 135 -63 151 -12 8 33 28 62 28 9 0 22 5 28 11
18 18 33 1 33 -37 0 -71 19 -117 60 -146 47 -34 85 -35 140 -4 159 90 133 340
-56 547 -81 88 -124 166 -123 218 0 40 7 31 30 -47z m1167 49 c120 -46 158
-48 228 -15 52 25 70 29 149 28 80 0 95 -3 132 -27 38 -24 62 -47 48 -47 -3 0
-22 11 -43 23 -46 29 -114 43 -105 21 3 -8 9 -14 13 -14 14 0 60 -79 71 -122
46 -183 26 -246 -97 -308 -38 -19 -94 -50 -125 -69 -68 -42 -76 -60 -86 -217
-8 -128 -8 -137 -1 -229 8 -91 -9 -125 -59 -125 -34 0 -28 -16 10 -25 27 -7
29 -9 10 -12 -12 -2 -31 1 -42 6 -25 14 -71 14 -71 1 0 -18 -19 -10 -36 15
-15 23 -15 27 0 50 9 14 12 25 7 25 -18 0 -33 -40 -26 -71 8 -38 29 -48 85
-43 43 5 46 3 79 -40 31 -40 40 -45 88 -51 29 -3 56 -11 59 -17 5 -7 -2 -8
-22 -3 -16 4 -46 7 -66 7 -21 0 -51 -1 -68 -1 -16 0 -45 0 -62 0 -18 0 -55 -2
-83 -4 -27 -3 -58 -1 -67 4 -14 8 -18 6 -18 -10 0 -10 6 -19 13 -18 55 2 66
-3 72 -35 8 -34 59 -101 69 -91 9 10 7 -27 -3 -45 -8 -16 -3 -17 52 -17 75 0
107 -21 107 -71 0 -37 -25 -90 -46 -98 -9 -3 -70 -6 -137 -7 l-120 0 -69 47
c-120 82 -259 230 -296 317 -9 20 -20 37 -24 37 -16 0 -31 92 -39 225 -4 77
-13 197 -20 266 -14 146 -10 165 52 226 21 21 39 41 39 46 0 4 11 25 24 46 14
21 36 73 51 116 22 68 61 160 98 234 20 40 85 100 119 110 53 15 74 13 156
-18z m-1295 -88 l46 -68 -11 -54 c-14 -68 2 -165 32 -191 15 -13 20 -29 20
-67 0 -44 -3 -51 -25 -61 -14 -7 -40 -12 -58 -12 -43 0 -60 36 -47 100 20 98
1 177 -51 214 -20 13 -21 21 -15 73 4 32 12 74 18 93 6 19 12 41 15 49 5 20
22 3 76 -76z m572 -45 c-4 -13 -17 -52 -30 -88 -13 -36 -26 -77 -30 -92 -3
-16 -9 -28 -14 -28 -5 0 -5 17 1 38 35 134 56 192 70 192 5 0 6 -10 3 -22z
m249 -295 c-15 -21 -44 -56 -64 -77 -70 -78 -85 -95 -95 -108 -6 -7 -27 -33
-47 -57 -44 -51 -67 -138 -88 -324 -6 -48 -14 -95 -20 -105 -5 -9 -22 -46 -39
-82 -32 -69 -40 -68 -16 2 24 73 43 170 44 232 3 127 38 224 111 306 12 14 39
45 59 69 20 25 53 63 75 85 21 23 49 58 63 80 17 27 28 35 35 28 8 -8 3 -22
-18 -49z m1555 -126 c23 -49 27 -121 16 -277 -5 -82 -4 -115 8 -147 8 -24 11
-43 7 -43 -5 0 -12 15 -15 33 -4 17 -12 38 -18 45 -6 8 -7 48 -2 115 12 152 8
196 -21 266 -17 40 -17 51 -4 51 5 0 18 -19 29 -43z m-479 -17 c13 -7 20 -21
20 -40 0 -28 -2 -29 -26 -20 -34 13 -190 13 -216 -1 -11 -6 -22 -8 -25 -5 -9
9 60 66 87 72 14 3 30 8 35 10 17 6 103 -4 125 -16z m192 -149 c0 -72 -5 -145
-10 -163 -6 -18 -13 -53 -17 -78 -6 -45 -16 -79 -40 -135 -7 -16 -19 -48 -26
-70 -7 -22 -17 -44 -21 -49 -4 -6 -8 -19 -8 -29 0 -21 -64 -130 -88 -149 -14
-12 -14 -10 -1 12 8 13 20 30 27 38 6 7 12 18 12 24 0 5 9 22 19 37 11 15 23
45 27 66 4 22 15 60 26 84 48 114 79 291 78 451 -1 89 2 112 11 103 8 -8 12
-54 11 -142z m-1555 56 c-25 -20 -55 -81 -72 -153 -18 -68 -56 -146 -63 -126
-2 6 4 31 12 57 9 25 16 52 16 60 0 9 4 23 9 33 5 9 15 37 22 62 8 25 30 63
49 84 33 37 35 38 38 17 2 -13 -3 -28 -11 -34z m1303 14 c0 -7 -30 -11 -77
-11 -93 0 -82 16 13 19 39 1 64 -2 64 -8z m-1126 -57 c3 -9 9 -41 12 -72 6
-64 9 -88 25 -185 12 -72 5 -95 -25 -84 -19 8 -52 80 -60 135 -7 49 10 97 25
69 6 -9 5 -25 -2 -40 -9 -19 -7 -31 5 -56 9 -17 21 -31 26 -31 10 0 3 27 -12
47 -6 8 -5 25 2 46 11 28 10 38 -4 66 -20 39 -37 46 -66 31 -20 -11 -22 -18
-18 -83 5 -84 38 -162 87 -208 18 -17 25 -18 36 -9 13 11 15 7 15 -23 0 -29
-4 -35 -25 -39 -23 -5 -30 2 -62 59 -73 131 -94 271 -52 339 32 52 80 72 93
38z m970 -21 c6 -19 4 -21 -21 -14 -32 9 -43 37 -16 43 22 5 29 0 37 -29z m40
16 c13 -16 25 -20 47 -15 19 3 28 2 24 -4 -12 -19 -61 -10 -83 15 -12 14 -18
25 -14 25 4 0 16 -9 26 -21z m156 8 c0 -16 -38 -53 -45 -45 -3 3 1 11 10 18 8
7 15 19 15 26 0 8 5 14 10 14 6 0 10 -6 10 -13z m-181 -67 c38 0 93 -21 69
-27 -9 -2 -19 -11 -22 -19 -5 -13 3 -16 44 -16 3 -1 31 2 62 6 l57 6 8 -42
c10 -48 1 -116 -23 -168 -45 -98 -57 -121 -84 -152 l-29 -33 -60 64 c-34 35
-61 71 -61 80 0 10 -3 21 -6 24 -34 34 -56 213 -34 272 8 22 13 24 29 15 11
-5 33 -10 50 -10z m-1350 -177 c-16 -159 -32 -238 -56 -273 -12 -19 -23 -40
-23 -47 0 -7 -4 -13 -9 -13 -9 0 -17 36 -27 120 -3 25 -10 49 -14 54 -5 5 -6
21 -3 36 3 15 0 31 -6 34 -8 5 -8 13 1 29 6 12 16 42 23 67 11 43 13 45 56 51
24 3 49 7 54 7 7 1 8 -22 4 -65z m42 -60 c-9 -16 -10 -16 -11 -1 0 9 3 25 7
35 7 16 8 17 11 1 2 -10 -1 -25 -7 -35z m-237 -29 c18 -7 22 -39 6 -49 -12 -7
-50 16 -50 32 0 6 6 14 13 16 6 3 13 6 14 6 1 1 8 -2 17 -5z m1418 -31 c26
-24 23 -53 -5 -53 -20 0 -24 5 -25 35 -2 39 3 42 30 18z m882 -76 c9 -25 16
-72 16 -113 0 -85 21 -152 60 -189 25 -24 39 -28 102 -32 84 -4 108 -20 107
-67 l-1 -31 -9 31 c-11 39 -26 46 -106 49 -117 5 -161 68 -175 249 -4 60 -12
114 -18 120 -12 12 -13 26 -1 26 4 0 16 -19 25 -43z m-2274 -4 c0 -35 -34 -27
-38 9 -3 22 0 26 17 21 14 -4 21 -14 21 -30z m589 -32 c9 -20 10 -43 3 -81
-14 -77 11 -140 65 -161 48 -18 39 -112 -15 -147 -22 -14 -27 -14 -57 2 -90
49 -116 282 -43 389 24 34 33 34 47 -2z m-394 -11 c-3 -16 -15 -48 -26 -70
-11 -23 -26 -71 -33 -108 l-14 -67 -1 63 c0 34 3 70 8 80 6 9 22 43 37 75 29
63 39 72 29 27z m-167 -42 c7 -24 19 -74 27 -113 9 -38 18 -75 20 -81 2 -7 -4
-10 -14 -7 -13 3 -21 23 -31 71 -7 37 -16 74 -20 82 -4 8 -10 32 -14 53 -10
54 18 50 32 -5z m309 -160 c-5 -128 -11 -158 -42 -208 -23 -36 -29 -57 -46
-150 -12 -64 -28 -89 -30 -44 -2 64 3 101 22 152 23 64 23 68 4 52 -31 -25
-26 0 10 56 31 49 38 70 42 124 6 103 12 130 29 130 13 0 15 -17 11 -112z
m840 81 c15 -6 52 -11 81 -11 57 -1 67 -7 58 -42 -5 -21 -10 -22 -68 -19 -93
6 -105 10 -121 42 -21 42 -6 52 50 30z m-1394 -69 l-3 -25 19 22 c16 20 22 21
62 11 24 -6 55 -19 69 -29 14 -9 43 -21 65 -25 46 -8 83 -40 109 -91 10 -21
23 -46 28 -57 5 -10 12 -62 15 -115 3 -53 12 -121 20 -151 8 -30 19 -80 25
-110 5 -30 12 -62 14 -70 3 -8 5 -16 5 -17 0 -2 5 -17 11 -35 5 -18 16 -58 23
-88 7 -30 23 -93 35 -140 11 -47 25 -101 30 -120 5 -19 13 -53 19 -75 17 -68
24 -155 13 -155 -13 0 -17 11 -32 95 -6 39 -16 90 -22 115 -5 25 -12 61 -15
80 -3 19 -9 40 -13 45 -4 6 -10 30 -14 54 -4 24 -15 72 -25 105 -10 34 -25 86
-34 116 -8 30 -21 76 -28 103 -7 26 -16 47 -20 47 -8 0 18 -120 55 -254 14
-49 15 -70 6 -115 -25 -122 -94 -295 -139 -344 -51 -56 -131 -72 -188 -37 -65
39 -78 92 -60 240 9 77 14 92 61 165 28 44 56 87 63 95 6 8 34 44 62 80 28 36
55 71 61 77 25 29 56 91 67 133 32 119 1 307 -61 363 -20 18 -30 22 -23 10 52
-99 66 -185 47 -278 -17 -84 -57 -176 -80 -183 -6 -2 -2 12 9 31 32 58 73 230
64 271 -17 77 -35 112 -68 134 -19 12 -39 22 -44 22 -5 0 -17 7 -25 16 -9 8
-16 11 -16 5 0 -6 -12 -11 -26 -11 -14 0 -23 4 -19 10 3 6 1 10 -4 10 -24 0
-9 18 21 24 17 3 29 8 26 11 -2 3 -19 1 -36 -4 -27 -8 -34 -7 -42 10 -6 10
-16 19 -23 19 -8 0 -8 -3 -2 -8 11 -8 45 -58 45 -67 0 -11 -49 -4 -53 8 -3 7
-6 5 -6 -5 -1 -10 -7 -18 -15 -18 -8 0 -44 -18 -80 -41 -36 -22 -71 -39 -78
-36 -8 3 -6 6 5 6 9 1 17 6 17 11 0 13 -27 13 -35 1 -3 -6 -28 -10 -55 -9 -45
0 -51 3 -56 24 -4 14 -16 31 -27 39 -16 11 -18 15 -6 15 9 0 26 -9 39 -20 28
-24 43 -22 50 9 l5 23 27 -21 c31 -25 51 -28 23 -3 -11 9 -30 29 -43 43 l-23
27 33 20 c18 11 52 23 76 27 36 6 42 4 43 -12 0 -14 2 -13 10 5 7 18 15 23 36
20 23 -2 28 -7 26 -28z m2147 -13 c0 -50 -79 -137 -124 -137 -10 0 -2 13 23
36 22 19 52 55 66 80 29 50 35 53 35 21z m-2364 -39 c4 -6 2 -14 -4 -16 -7 -2
-9 -8 -6 -13 3 -6 3 -17 0 -25 -5 -13 -9 -12 -27 5 -20 18 -18 48 2 35 5 -3 9
-2 8 3 -4 25 14 32 27 11z m-82 -98 c15 0 26 -7 29 -20 7 -26 -19 -26 -52 -1
-20 15 -23 23 -15 47 l8 29 4 -27 c2 -22 9 -28 26 -28z m2242 -17 c-17 -50
-22 -182 -7 -211 5 -9 14 -28 19 -42 6 -14 21 -40 32 -58 14 -20 17 -30 8 -27
-18 7 -32 31 -63 106 -26 65 -32 133 -16 185 5 16 15 49 22 73 7 24 15 39 17
32 2 -6 -3 -32 -12 -58z m-1283 17 c-4 -40 -26 -134 -35 -145 -68 -85 -107
-172 -117 -255 -8 -69 -26 -64 -25 6 1 74 31 159 80 231 29 43 45 77 49 110
10 72 15 84 33 81 11 -3 16 -12 15 -28z m-873 -40 c-20 -13 -43 -13 -35 0 3 6
16 10 28 10 18 0 19 -2 7 -10z m238 -34 c3 -21 0 -26 -10 -20 -7 4 -5 -1 4
-12 24 -28 13 -56 -30 -76 l-37 -17 39 6 c34 5 38 4 33 -11 -6 -14 -35 -136
-52 -212 -4 -20 -7 -20 -91 -9 -63 9 -91 17 -100 30 -8 10 -17 16 -20 13 -9
-10 5 -45 19 -45 6 -1 32 -5 57 -9 25 -4 62 -7 84 -7 38 1 38 1 31 -30 -3 -18
-9 -48 -12 -69 -4 -24 -12 -38 -24 -41 -13 -4 -17 -11 -13 -22 5 -13 9 -14 15
-3 7 10 9 9 9 -5 0 -14 -5 -17 -20 -12 -12 4 -20 2 -20 -5 0 -8 -15 -9 -47 -5
-80 11 -84 13 -77 43 l6 27 -16 -29 c-20 -35 -20 -36 2 -36 10 0 22 -4 27 -9
12 -12 107 -17 123 -7 17 10 15 -13 -4 -49 -9 -18 -11 -31 -5 -33 5 -2 7 -10
4 -18 -3 -7 -9 -11 -14 -8 -5 3 -9 0 -9 -6 0 -6 -4 -8 -10 -5 -5 3 -10 1 -10
-5 0 -6 10 -8 23 -5 21 6 22 4 18 -42 -3 -36 -6 -43 -12 -28 -7 19 -8 19 -8
-1 -1 -36 -81 -43 -103 -10 -5 7 -8 5 -8 -6 0 -29 59 -36 112 -13 23 9 38 -42
17 -57 -11 -8 -12 -11 -1 -15 9 -3 4 -10 -13 -19 -32 -16 -61 -18 -70 -4 -3 6
-12 10 -18 10 -17 -1 32 -40 49 -40 8 0 26 7 39 16 14 9 26 14 26 10 9 -44 22
-72 46 -98 19 -20 24 -34 21 -58 -5 -35 11 -53 19 -21 4 17 8 19 19 10 20 -17
17 -57 -5 -64 -10 -3 -30 -1 -45 5 -39 14 -118 92 -140 137 -10 21 -22 45 -26
53 -4 8 -19 57 -34 109 -39 136 -50 240 -37 368 6 58 11 130 11 159 0 29 5 56
11 60 7 4 9 23 5 50 -3 23 -3 72 1 108 6 62 7 66 31 66 14 0 51 9 81 19 74 26
91 29 126 28 25 -2 31 -7 33 -31z m92 9 c24 -15 90 -100 90 -116 1 -8 7 -31
14 -52 11 -31 12 -48 2 -90 -12 -49 -52 -124 -83 -155 -7 -7 -13 -16 -13 -20
-1 -4 -20 -28 -44 -55 -62 -68 -125 -204 -147 -317 -6 -31 -7 -5 -4 86 4 129
9 158 47 304 57 216 70 281 74 360 2 41 3 76 4 77 0 3 46 -13 60 -22z m1008
-3 c19 -15 54 -46 79 -69 25 -23 61 -49 79 -58 19 -9 34 -20 34 -24 0 -5 42
-34 94 -65 52 -31 101 -62 108 -70 7 -7 24 -18 37 -25 21 -11 22 -18 17 -54
-4 -23 -11 -46 -17 -52 -16 -16 -10 -78 16 -140 30 -73 31 -111 4 -150 -11
-16 -24 -39 -29 -51 -12 -29 -112 -40 -173 -19 -68 23 -234 112 -265 142 -7 7
-34 24 -61 39 -72 41 -100 98 -113 227 -13 136 -12 145 20 197 16 25 37 70 47
100 21 61 50 100 74 100 9 0 31 -13 49 -28z m-1387 -93 c-5 -71 -8 -64 -14 30
-2 47 -1 60 7 49 6 -9 9 -42 7 -79z m1136 -9 c14 -18 23 -65 28 -147 6 -85 22
-214 30 -243 8 -25 8 -25 -13 -6 -31 27 -40 12 -17 -29 18 -34 45 -47 45 -22
1 6 11 -1 24 -16 22 -28 47 -45 93 -66 14 -6 20 -16 17 -25 -9 -22 13 -53 41
-58 14 -3 25 -1 25 3 0 12 37 11 44 0 4 -5 41 -26 84 -46 42 -20 85 -40 94
-46 10 -5 44 -9 77 -9 52 0 59 -3 64 -21 5 -19 11 -21 39 -15 63 12 64 42 2
38 -23 -2 -33 1 -29 8 3 5 14 10 24 10 21 0 92 29 163 65 l47 25 -11 -25 c-15
-34 -6 -40 30 -21 39 20 47 33 32 52 -10 11 -16 12 -26 3 -9 -7 -14 -8 -14 -1
0 5 10 16 23 25 48 32 201 194 218 232 10 22 19 62 19 88 0 35 4 47 13 44 15
-5 12 -89 -4 -119 -7 -14 -8 -23 -1 -27 20 -12 24 -57 8 -74 -19 -18 -20 -39
-5 -54 12 -12 -2 -61 -23 -88 -58 -73 -140 -140 -221 -182 -47 -24 -51 -24
-63 -8 -16 22 -41 13 -53 -18 -12 -32 -87 -60 -136 -51 -20 3 -34 9 -31 12 9
8 -43 32 -69 32 -13 0 -30 -7 -39 -15 -18 -19 -60 -19 -89 -1 -12 8 -31 16
-42 18 -11 2 -28 10 -38 19 -10 9 -34 19 -52 22 -19 3 -45 15 -57 27 -12 11
-34 24 -48 27 -14 4 -31 12 -38 20 -7 7 -19 13 -27 13 -16 0 -115 97 -115 113
0 7 -11 24 -25 39 -14 15 -28 41 -31 58 -4 16 -10 30 -15 30 -4 0 -10 48 -13
108 -3 59 -6 116 -7 127 -2 29 8 144 16 183 7 28 10 31 24 20 9 -7 21 -20 28
-28z m-76 3 c-6 -25 -67 -70 -79 -59 -2 2 9 23 24 45 32 49 66 57 55 14z m-93
-35 c-10 -36 -14 -48 -23 -90 -4 -23 -11 -28 -35 -28 -34 0 -45 -13 -31 -37 6
-13 4 -29 -8 -53 -20 -43 -38 -102 -46 -155 -4 -21 -15 -45 -25 -52 -16 -11
-17 -19 -10 -39 12 -32 13 -94 1 -94 -5 0 -15 38 -24 85 -15 80 -15 88 3 137
13 38 24 53 37 53 11 0 19 9 21 23 3 21 -11 31 -21 15 -2 -5 -2 -1 1 7 2 8 9
33 15 55 5 22 18 52 29 67 10 14 18 30 18 34 0 15 44 54 62 54 11 0 18 7 18
18 0 20 8 32 21 32 4 0 3 -15 -3 -32z m86 -44 c14 -36 6 -64 -23 -78 -30 -16
-61 -56 -61 -81 0 -8 -5 -15 -11 -15 -7 0 -8 7 -4 18 4 9 9 41 12 70 5 42 12
58 35 77 34 29 44 31 52 9z m1883 -41 c-3 -21 -19 -76 -35 -123 -24 -66 -31
-78 -32 -53 0 17 5 35 10 38 6 3 10 14 10 23 0 9 7 30 15 46 8 16 18 46 21 67
8 50 18 51 11 2z m-67 -47 c0 -18 -3 -36 -6 -39 -15 -15 -43 -115 -44 -154 0
-34 -7 -49 -36 -80 -20 -21 -40 -46 -45 -55 -15 -29 -32 -22 -24 9 3 15 10 30
14 33 24 17 61 81 61 106 1 16 9 47 20 69 11 22 25 66 31 97 12 61 29 69 29
14z m-2885 -64 c-13 -108 -20 -287 -13 -337 10 -66 33 -175 43 -200 6 -14 5
-17 -3 -10 -5 6 -23 48 -38 95 -28 82 -29 92 -29 280 0 107 4 212 8 234 8 38
9 38 24 16 12 -16 14 -35 8 -78z m1070 1 c5 -37 4 -48 -9 -55 -22 -12 -42 -55
-51 -108 -6 -36 -9 -41 -16 -25 -22 58 -3 172 38 217 24 27 30 22 38 -29z m7
-136 c1 -36 -5 -65 -15 -81 -10 -14 -17 -40 -17 -58 l-1 -33 -13 31 c-12 27
-12 43 0 104 12 66 30 107 41 96 3 -2 5 -29 5 -59z m43 -115 c4 -15 11 -30 17
-33 7 -4 8 -15 3 -25 -14 -32 -15 -58 -6 -89 9 -28 9 -27 10 16 1 25 4 48 7
52 3 3 24 -13 47 -36 36 -36 41 -46 42 -94 2 -29 -1 -53 -4 -53 -11 0 -114 91
-130 114 -8 12 -19 24 -23 27 -5 3 -11 29 -15 57 -10 92 32 144 52 64z m-380
-159 c14 -75 8 -101 -35 -143 -30 -29 -70 -54 -70 -43 0 24 37 93 52 97 25 6
34 35 19 58 -10 16 -10 29 0 64 7 24 15 41 17 39 2 -2 10 -34 17 -72z m245 47
c0 -16 -23 -60 -32 -60 -4 0 -8 16 -8 35 0 28 4 35 20 35 11 0 20 -4 20 -10z
m38 -32 c7 -7 12 -29 12 -49 0 -74 -24 -91 -50 -36 -13 28 -13 36 0 64 17 36
21 38 38 21z m1476 -24 c23 -23 20 -24 -14 -8 -16 9 -30 17 -30 20 0 10 30 2
44 -12z m-1161 -96 c15 -33 26 -62 24 -64 -2 -2 -26 8 -53 22 l-49 25 -2 55
-2 55 27 -16 c16 -10 38 -41 55 -77z m942 81 c11 -17 -1 -21 -15 -4 -8 9 -8
15 -2 15 6 0 14 -5 17 -11z m-1206 -57 c12 -28 12 -90 0 -98 -3 -2 -14 5 -23
15 -14 15 -16 29 -11 65 8 53 18 58 34 18z m317 -10 c11 -10 28 -39 37 -65 13
-40 14 -47 1 -47 -31 0 -60 46 -55 87 1 6 -3 14 -9 18 -12 7 -14 25 -2 25 4
-1 16 -8 28 -18z m825 -2 c10 -6 19 -16 19 -23 0 -8 -3 -9 -8 -1 -4 6 -16 16
-27 22 -25 14 -11 16 16 2z m234 -10 c10 -11 14 -20 8 -20 -5 0 -18 9 -28 20
-10 11 -14 20 -8 20 5 0 18 -9 28 -20z m-928 -59 c2 -9 9 -24 14 -33 11 -21
12 -48 2 -48 -31 0 -71 27 -81 54 -27 80 -28 77 19 58 22 -9 43 -23 46 -31z
m-369 -9 c12 -27 17 -102 6 -102 -4 0 -24 18 -46 40 -22 22 -36 40 -30 40 5 0
13 16 16 35 6 30 9 33 24 24 10 -6 23 -23 30 -37z m982 14 c8 -11 9 -16 1 -16
-6 0 -11 4 -11 10 0 5 -11 12 -25 16 -14 3 -22 10 -19 15 6 11 35 -3 54 -25z
m-910 -20 c0 -10 -50 8 -54 20 -5 12 0 12 24 -1 17 -9 30 -17 30 -19z m360 2
c8 -13 22 -37 31 -54 l18 -31 -32 6 c-26 6 -35 14 -49 54 -17 45 -17 47 0 47
9 0 24 -10 32 -22z m815 2 c23 -26 8 -26 -25 0 -18 14 -21 20 -9 20 9 0 24 -9
34 -20z m-678 -54 c18 -17 33 -34 33 -38 0 -12 -68 -10 -91 2 -10 6 -19 17
-19 25 0 8 -4 15 -9 15 -5 0 -11 9 -14 20 -5 19 -2 20 31 14 21 -4 51 -20 69
-38z m264 34 c10 -6 19 -16 19 -23 0 -8 -3 -9 -8 -1 -4 6 -16 16 -27 22 -25
14 -11 16 16 2z m-743 -37 c16 -17 22 -35 20 -60 -3 -45 -11 -49 -53 -23 -32
20 -35 25 -35 71 0 47 1 50 23 44 12 -4 32 -18 45 -32z m604 10 c26 -23 23
-31 -19 -42 -34 -10 -40 -8 -65 16 -15 15 -28 30 -28 35 0 16 93 9 112 -9z
m472 -32 c-7 -7 -34 28 -34 43 1 6 10 0 21 -13 11 -13 17 -27 13 -30z m-1020
3 c12 -4 16 -20 16 -56 0 -44 -2 -49 -20 -46 -12 2 -21 6 -20 11 0 4 0 27 0
52 0 48 0 48 24 39z m85 -51 c10 -21 0 -80 -12 -75 -4 1 -16 2 -26 2 -16 0
-19 7 -17 58 1 56 2 57 23 47 12 -5 26 -20 32 -32z m815 21 c23 -22 20 -30
-18 -53 -40 -25 -52 -26 -60 -5 -10 27 3 52 32 63 15 5 28 10 29 10 1 1 9 -6
17 -15z m-724 -48 c10 -27 11 -108 1 -103 -3 2 -23 12 -44 21 -29 14 -37 22
-31 34 4 9 9 29 12 45 6 36 48 39 62 3z m631 -13 c7 -20 3 -26 -32 -44 -23
-11 -47 -18 -55 -15 -23 9 -16 43 13 66 33 26 63 23 74 -7z m-191 -3 c-8 -5
-17 -7 -19 -4 -3 3 1 9 9 14 8 5 17 7 19 4 3 -3 -1 -9 -9 -14z m-350 -50 c0
-54 -14 -70 -46 -52 -15 8 -21 53 -15 97 1 3 15 5 31 5 29 0 30 -1 30 -50z
m64 44 c12 -4 16 -20 16 -54 0 -47 0 -48 -36 -52 l-36 -4 7 50 c3 28 12 54 18
58 15 9 12 9 31 2z m354 -6 c7 -7 12 -24 12 -39 0 -24 -4 -27 -40 -31 -26 -2
-40 1 -40 8 0 7 -2 18 -5 26 -3 7 7 21 22 30 34 21 36 21 51 6z m-87 -41 c3
-20 4 -39 1 -42 -3 -3 -23 -5 -44 -5 -36 0 -38 1 -38 33 0 27 5 35 28 44 39
15 46 11 53 -30z m-173 -14 c3 -42 2 -43 -27 -43 -29 0 -31 2 -31 38 0 45 6
54 35 50 16 -2 21 -12 23 -45z m74 25 c7 -40 -2 -58 -28 -58 -21 0 -24 5 -24
33 0 38 6 47 31 47 9 0 18 -9 21 -22z"/>
<path d="M2933 4206 c-37 -18 -37 -36 0 -29 30 6 57 24 57 37 0 9 -33 5 -57
-8z"/>
<path d="M2767 3343 c-12 -11 -8 -23 8 -23 8 0 15 7 15 15 0 16 -12 20 -23 8z"/>
<path d="M2240 3710 c0 -5 5 -10 10 -10 6 0 10 5 10 10 0 6 -4 10 -10 10 -5 0
-10 -4 -10 -10z"/>
<path d="M2910 2755 c0 -12 -20 -15 -115 -15 -104 0 -115 -2 -125 -20 -6 -11
-8 -26 -4 -32 4 -7 7 -31 5 -55 -2 -53 3 -56 113 -57 78 -1 81 -2 84 -26 2
-13 14 -37 27 -51 29 -35 45 -21 45 36 0 39 1 41 28 38 15 -2 63 1 107 5 l80
9 -107 2 -106 1 10 28 11 29 100 1 c54 0 101 3 104 6 3 2 2 10 -2 17 -6 8 -34
9 -106 4 -55 -3 -99 -3 -99 2 0 4 -3 18 -6 30 -6 22 -5 22 86 22 51 0 95 2 98
5 3 3 -40 6 -96 6 -56 0 -102 4 -102 9 0 5 -7 11 -15 15 -9 3 -15 0 -15 -9z
m-20 -30 c0 -2 -5 -16 -12 -31 -12 -26 -13 -27 -96 -21 -84 5 -106 15 -95 44
4 10 31 13 104 13 54 0 99 -2 99 -5z m15 -94 c-4 -28 -11 -51 -17 -51 -10 0
-2 85 9 103 11 18 15 -5 8 -52z m-69 17 c20 0 24 -5 24 -29 l0 -29 -85 0 -85
0 0 28 c0 40 7 44 68 36 29 -3 64 -6 78 -6z"/>
<path d="M2430 2438 c-35 -10 -140 -77 -140 -90 0 -15 21 -7 73 27 54 35 115
54 179 55 52 0 101 -44 87 -78 -8 -21 -13 -23 -54 -17 -45 7 -125 -13 -170
-42 -11 -7 -30 -13 -42 -13 -29 0 -30 -16 -2 -25 17 -6 19 -9 8 -16 -10 -6 -5
-9 17 -9 18 0 38 -8 48 -19 19 -21 96 -51 128 -51 12 0 18 -6 16 -17 -2 -15 4
-17 37 -15 22 1 62 8 89 14 26 6 72 8 101 5 49 -5 54 -4 59 18 6 24 0 77 -14
110 -30 77 -44 105 -51 105 -4 0 -14 6 -21 13 -30 27 -61 37 -145 47 -106 12
-157 11 -203 -2z m179 -127 c10 -7 0 -11 -35 -15 -27 -4 -73 -12 -102 -18 -65
-14 -76 -6 -20 15 75 27 132 34 157 18z m-15 -109 c25 3 46 2 46 -2 0 -11 -26
-20 -56 -20 -34 0 -124 30 -124 41 0 5 -8 9 -17 9 -22 0 -5 16 22 22 13 3 32
-6 52 -25 28 -26 37 -29 77 -25z m-48 43 c19 -18 75 -20 94 -2 12 10 12 9 1
-5 -19 -25 -83 -24 -106 2 -21 23 -11 27 11 5z"/>
<path d="M1416 2845 l-17 -44 28 -36 c15 -19 33 -35 40 -35 23 0 46 73 26 82
-5 2 -17 20 -27 41 -11 20 -22 37 -26 37 -4 0 -15 -20 -24 -45z m51 -28 c7
-21 5 -48 -3 -56 -8 -9 -44 43 -39 57 3 7 5 18 5 23 0 16 29 -3 37 -24z"/>
<path d="M1487 2573 c-11 -18 -18 -74 -12 -92 12 -38 75 -38 75 0 0 23 -39 99
-50 99 -5 0 -11 -3 -13 -7z m26 -76 c3 -8 2 -19 -3 -26 -5 -10 -9 -8 -14 4 -3
9 -6 21 -6 26 0 14 17 11 23 -4z"/>
<path d="M1296 1552 c-2 -4 11 -6 30 -4 19 2 34 6 34 8 0 8 -59 4 -64 -4z"/>
<path d="M1410 1540 c0 -5 5 -10 11 -10 5 0 7 5 4 10 -3 6 -8 10 -11 10 -2 0
-4 -4 -4 -10z"/>
<path d="M1333 1523 c9 -2 23 -2 30 0 6 3 -1 5 -18 5 -16 0 -22 -2 -12 -5z"/>
<path d="M1380 1509 c0 -6 -6 -9 -12 -6 -21 7 -48 -12 -48 -33 0 -16 7 -20 30
-20 25 0 30 4 30 25 0 14 5 25 10 25 6 0 10 -9 10 -20 0 -11 5 -20 10 -20 14
0 12 22 -4 43 -15 19 -26 22 -26 6z"/>
<path d="M1246 1434 c-5 -14 -4 -15 9 -4 17 14 19 20 6 20 -5 0 -12 -7 -15
-16z"/>
<path d="M1256 1311 c-7 -10 110 -8 120 2 4 4 -20 7 -54 7 -33 0 -63 -4 -66
-9z"/>
<path d="M1222 1263 c-2 -41 -1 -43 26 -42 22 1 23 2 5 6 -17 3 -23 13 -26 41
l-4 37 -1 -42z"/>
<path d="M1298 1213 c12 -2 30 -2 40 0 9 3 -1 5 -23 4 -22 0 -30 -2 -17 -4z"/>
<path d="M1228 1150 c3 -21 11 -32 26 -34 53 -11 76 -13 76 -5 0 4 -19 9 -42
11 -39 3 -43 6 -46 31 -2 15 -7 27 -11 27 -4 0 -6 -14 -3 -30z"/>
<path d="M1405 1138 c-4 -10 -18 -18 -32 -18 -13 0 -21 -4 -18 -10 9 -15 55
-12 61 5 9 22 -2 44 -11 23z"/>
<path d="M1200 960 c0 -5 5 -10 10 -10 6 0 10 5 10 10 0 6 -4 10 -10 10 -5 0
-10 -4 -10 -10z"/>
<path d="M1355 916 c-8 -28 -8 -28 -72 -24 -55 3 -61 2 -41 -9 13 -7 44 -12
70 -13 42 0 48 3 54 25 3 13 4 30 1 37 -2 7 -8 0 -12 -16z"/>
<path d="M1195 900 c-3 -5 -1 -10 4 -10 6 0 11 5 11 10 0 6 -2 10 -4 10 -3 0
-8 -4 -11 -10z"/>
<path d="M1183 720 c7 -52 21 -68 67 -75 35 -5 35 -5 5 5 -37 12 -55 35 -55
71 0 15 -5 31 -12 35 -8 5 -9 -5 -5 -36z"/>
<path d="M1220 501 c0 -6 4 -13 10 -16 6 -3 7 1 4 9 -7 18 -14 21 -14 7z"/>
<path d="M1285 360 c-4 -7 -1 -16 6 -21 19 -12 59 -11 59 1 0 6 -8 10 -18 10
-10 0 -23 5 -29 11 -8 8 -13 7 -18 -1z"/>
<path d="M1430 230 c0 -5 5 -10 11 -10 5 0 7 5 4 10 -3 6 -8 10 -11 10 -2 0
-4 -4 -4 -10z"/>
<path d="M1575 1223 c5 -49 1 -49 -9 0 -13 59 -66 15 -66 -55 0 -60 22 -71 50
-25 28 46 25 10 -5 -51 -14 -29 -25 -58 -25 -65 0 -8 -3 -17 -7 -20 -7 -8 -43
-107 -43 -120 0 -28 37 37 71 125 22 56 45 108 50 115 13 14 15 88 5 121 -13
39 -26 24 -21 -25z"/>
<path d="M2275 1159 c-4 -6 -4 -27 0 -47 l8 -37 14 34 c14 34 12 61 -6 61 -5
0 -13 -5 -16 -11z"/>
<path d="M2277 976 c-4 -9 -4 -29 -1 -46 5 -25 8 -27 20 -15 18 17 18 36 1 59
-13 17 -14 17 -20 2z"/>
<path d="M3362 778 c-15 -15 -15 -35 -2 -43 15 -9 40 14 40 36 0 21 -20 25
-38 7z"/>
<path d="M2390 677 c0 -14 20 -37 32 -37 15 0 8 38 -8 44 -22 8 -24 8 -24 -7z"/>
<path d="M3306 603 c-11 -27 11 -39 34 -18 11 10 20 22 20 27 0 15 -48 8 -54
-9z"/>
<path d="M2688 565 c-13 -14 5 -45 27 -45 20 0 53 25 44 34 -9 8 -65 16 -71
11z"/>
<path d="M3360 4360 c0 -5 9 -10 20 -10 13 0 18 -5 14 -15 -5 -12 2 -15 27
-15 l34 1 -22 18 c-12 10 -19 21 -16 25 4 3 -8 6 -25 6 -18 0 -32 -4 -32 -10z"/>
<path d="M3440 4360 c0 -14 48 -35 58 -26 8 9 -26 36 -45 36 -7 0 -13 -5 -13
-10z"/>
<path d="M3305 4350 c-3 -5 -3 -14 0 -20 3 -5 1 -10 -6 -10 -9 0 -10 -3 -3
-10 8 -8 19 -7 37 1 28 13 38 36 12 25 -9 -3 -15 0 -15 9 0 17 -16 20 -25 5z"/>
<path d="M3245 4320 c-3 -5 -4 -14 0 -19 3 -6 -4 -15 -15 -21 -11 -6 -20 -18
-20 -27 0 -14 3 -14 21 3 11 10 34 18 52 17 19 -1 24 1 12 4 -24 6 -37 23 -30
41 5 14 -11 16 -20 2z"/>
<path d="M3520 4320 c0 -13 28 -25 38 -16 3 4 0 11 -8 16 -20 13 -30 12 -30 0z"/>
<path d="M3480 4302 c0 -5 7 -15 15 -22 8 -7 15 -8 15 -2 0 5 -7 15 -15 22 -8
7 -15 8 -15 2z"/>
<path d="M3200 4290 c-8 -5 -11 -12 -7 -16 4 -4 13 -2 19 4 15 15 7 24 -12 12z"/>
<path d="M3340 4290 c0 -5 9 -10 20 -10 11 0 20 5 20 10 0 6 -9 10 -20 10 -11
0 -20 -4 -20 -10z"/>
<path d="M3420 4285 c7 -8 19 -15 27 -15 13 0 13 3 3 15 -7 8 -19 15 -27 15
-13 0 -13 -3 -3 -15z"/>
<path d="M3570 4266 c0 -14 27 -42 34 -35 2 2 0 14 -5 27 -9 24 -29 30 -29 8z"/>
<path d="M3400 4261 c0 -5 11 -18 25 -29 14 -11 25 -24 25 -30 0 -5 7 -12 15
-16 21 -8 19 4 -10 47 -24 34 -55 50 -55 28z"/>
<path d="M3157 4253 c-10 -9 -9 -23 2 -23 5 0 11 7 15 15 5 15 -5 20 -17 8z"/>
<path d="M3472 4238 c2 -6 10 -14 16 -16 7 -2 10 2 6 12 -7 18 -28 22 -22 4z"/>
<path d="M3500 4243 c1 -14 30 -47 36 -41 10 11 -7 48 -22 48 -8 0 -14 -3 -14
-7z"/>
<path d="M3166 4221 c-11 -12 -13 -21 -7 -25 5 -4 15 3 21 15 15 28 7 34 -14
10z"/>
<path d="M3547 4215 c3 -13 12 -30 20 -36 12 -11 13 -8 7 17 -8 36 -13 44 -23
44 -5 0 -6 -11 -4 -25z"/>
<path d="M3116 4205 c-3 -9 0 -15 9 -15 8 0 15 7 15 15 0 8 -4 15 -9 15 -5 0
-11 -7 -15 -15z"/>
<path d="M3610 4190 c0 -5 5 -10 10 -10 6 0 10 5 10 10 0 6 -4 10 -10 10 -5 0
-10 -4 -10 -10z"/>
<path d="M3490 4186 c0 -15 31 -79 36 -74 8 9 -7 56 -22 69 -8 6 -14 9 -14 5z"/>
<path d="M3540 4144 c9 -37 17 -51 25 -43 6 7 -17 79 -26 79 -4 0 -3 -16 1
-36z"/>
<path d="M3585 4120 c11 -53 28 -74 20 -25 -4 22 -11 45 -17 50 -7 7 -8 -1 -3
-25z"/>
<path d="M3637 4130 c3 -11 9 -20 14 -20 11 0 11 3 3 24 -9 23 -23 20 -17 -4z"/>
<path d="M3550 4064 c0 -17 7 -39 15 -50 14 -18 15 -16 9 21 -8 50 -24 70 -24
29z"/>
<path d="M3667 4084 c-7 -8 4 -44 14 -44 12 0 12 37 0 44 -4 3 -11 3 -14 0z"/>
<path d="M3631 4038 c0 -13 4 -32 9 -43 7 -16 9 -13 9 17 1 20 -3 40 -9 43 -6
3 -10 -4 -9 -17z"/>
<path d="M3590 4021 c0 -17 5 -33 10 -36 7 -4 10 6 8 29 -3 43 -18 49 -18 7z"/>
<path d="M3688 4004 c-6 -6 1 -66 8 -73 2 -2 4 14 4 37 0 42 -2 47 -12 36z"/>
<path d="M3550 3960 c0 -16 5 -30 10 -30 6 0 10 14 10 30 0 17 -4 30 -10 30
-5 0 -10 -13 -10 -30z"/>
<path d="M3601 3910 c2 -83 19 -87 19 -6 0 38 -4 66 -10 66 -6 0 -10 -26 -9
-60z"/>
<path d="M3642 3930 c0 -19 2 -27 5 -17 2 9 2 25 0 35 -3 9 -5 1 -5 -18z"/>
<path d="M3692 3875 c0 -16 2 -22 5 -12 2 9 2 23 0 30 -3 6 -5 -1 -5 -18z"/>
<path d="M3554 3879 c-3 -6 -1 -16 5 -22 8 -8 11 -5 11 11 0 24 -5 28 -16 11z"/>
<path d="M3635 3861 c-3 -5 -1 -12 5 -16 5 -3 10 1 10 9 0 18 -6 21 -15 7z"/>
</g>
</svg>
